<?xml version="1.0" encoding="UTF-8" standalone="no"?> <svg width="24" height="24" viewBox="0 0 24 24" fill="none" xmlns="http://www.w3.org/2000/svg">
<path fill-rule="evenodd" clip-rule="evenodd" d="M8 1C8.55228 1 9 1.44772 9 2V3H11V2C11 1.44772 11.4477 1 12 1C12.5523 1 13 1.44772 13 2V3H15V2C15 1.44772 15.4477 1 16 1C16.5523 1 17 1.44772 17 2V3H18C19.6569 3 21 4.34315 21 6V7H22C22.5523 7 23 7.44772 23 8C23 8.55228 22.5523 9 22 9H21V11H22C22.5523 11 23 11.4477 23 12C23 12.5523 22.5523 13 22 13H21V15H22C22.5523 15 23 15.4477 23 16C23 16.5523 22.5523 17 22 17H21V18C21 19.6569 19.6569 21 18 21H17V22C17 22.5523 16.5523 23 16 23C15.4477 23 15 22.5523 15 22V21H13V22C13 22.5523 12.5523 23 12 23C11.4477 23 11 22.5523 11 22V21H9V22C9 22.5523 8.55228 23 8 23C7.44772 23 7 22.5523 7 22V21H6C4.34315 21 3 19.6569 3 18V17H2C1.44772 17 1 16.5523 1 16C1 15.4477 1.44772 15 2 15H3V13H2C1.44772 13 1 12.5523 1 12C1 11.4477 1.44772 11 2 11H3V9H2C1.44772 9 1 8.55228 1 8C1 7.44772 1.44772 7 2 7H3V6C3 4.34315 4.34315 3 6 3H7V2C7 1.44772 7.44772 1 8 1ZM6 5C5.44772 5 5 5.44772 5 6V18C5 18.5523 5.44772 19 6 19H18C18.5523 19 19 18.5523 19 18V6C19 5.44772 18.5523 5 18 5H6ZM7 8C7 7.44772 7.44772 7 8 7H16C16.5523 7 17 7.44772 17 8V16C17 16.5523 16.5523 17 16 17H8C7.44772 17 7 16.5523 7 16V8ZM9 9V15H15V9H9Z" fill="#293644"/>
</svg>
