<?xml version="1.0" encoding="iso-8859-1"?>
<!-- Generator: Adobe Illustrator 16.0.0, SVG Export Plug-In . SVG Version: 6.00 Build 0)  -->
<!DOCTYPE svg PUBLIC "-//W3C//DTD SVG 1.1//EN" "http://www.w3.org/Graphics/SVG/1.1/DTD/svg11.dtd">
<svg version="1.1" id="Capa_1" xmlns="http://www.w3.org/2000/svg" xmlns:xlink="http://www.w3.org/1999/xlink" x="0px" y="0px"
	 width="946px" height="946px" viewBox="0 0 946 946" style="enable-background:new 0 0 946 946;" xml:space="preserve">
<g>
	<g>
		<rect x="431.7" y="589.899" width="82.6" height="77.9"/>
		<rect x="304.2" y="589.899" width="82.6" height="77.9"/>
		<rect x="52.7" y="589.899" width="79" height="77.9"/>
		<rect x="176.6" y="589.899" width="82.6" height="77.9"/>
		<rect x="814.4" y="589.899" width="79" height="77.9"/>
		<rect x="559.3" y="589.899" width="82.601" height="77.9"/>
		<rect x="686.8" y="589.899" width="82.601" height="77.9"/>
		<path d="M896,278.2H50c-27.6,0-50,22.4-50,50v34.3c29.1,0,52.7,23.6,52.7,52.7C52.7,444.3,29.1,467.9,0,467.9v84.3h946v-84.3
			c-29.1,0-52.7-23.6-52.7-52.699c0-29.101,23.601-52.7,52.7-52.7v-34.3C946,300.5,923.6,278.2,896,278.2z M253.1,434.1
			c0,27.601-22.4,50-50,50h-38c-27.6,0-50-22.4-50-50v-38c0-27.6,22.4-50,50-50h38c27.6,0,50,22.4,50,50V434.1z M542,434.1
			c0,27.601-22.4,50-50,50h-38c-27.6,0-50-22.4-50-50v-38c0-27.6,22.4-50,50-50h38c27.6,0,50,22.4,50,50V434.1z M829.9,434.1
			c0,27.601-22.4,50-50,50h-38c-27.601,0-50-22.4-50-50v-38c0-27.6,22.399-50,50-50h38c27.6,0,50,22.4,50,50V434.1z"/>
	</g>
</g>
<g>
</g>
<g>
</g>
<g>
</g>
<g>
</g>
<g>
</g>
<g>
</g>
<g>
</g>
<g>
</g>
<g>
</g>
<g>
</g>
<g>
</g>
<g>
</g>
<g>
</g>
<g>
</g>
<g>
</g>
</svg>
