<svg fill="#000000" xmlns="http://www.w3.org/2000/svg"  viewBox="0 0 50 50" width="50px" height="50px"><path d="M36,29v17H13V29H36 M36,27H13c-1.1,0-2,0.9-2,2v17c0,1.1,0.9,2,2,2h23c1.1,0,2-0.9,2-2V29C38,27.9,37.1,27,36,27L36,27z"/><path d="M24.5,16c4.136,0,7.5,3.364,7.5,7.5V27h-2v-3.5c0-2.981-2.519-5.5-5.5-5.5S19,20.519,19,23.5V27h-2v-3.5C17,19.364,20.364,16,24.5,16 M24.5,14c-5.23,0-9.5,4.27-9.5,9.5V29h19v-5.5C34,18.27,29.73,14,24.5,14L24.5,14z M21,27v-3.5c0-1.9,1.6-3.5,3.5-3.5s3.5,1.6,3.5,3.5V27H21L21,27z"/><path fill="none" stroke="#000000" stroke-miterlimit="10" stroke-width="2" d="M27 36.5c0-1.381-1.119-2.5-2.5-2.5S22 35.119 22 36.5c0 .815.396 1.532 1 1.989V40.5c0 .825.675 1.5 1.5 1.5s1.5-.675 1.5-1.5v-2.011C26.604 38.032 27 37.315 27 36.5zM12 22.5L12 22.5c0 .825-.675 1.5-1.5 1.5h-5C4.675 24 4 23.325 4 22.5v0C4 21.675 4.675 21 5.5 21h5C11.325 21 12 21.675 12 22.5zM45 22.5L45 22.5c0 .825-.675 1.5-1.5 1.5h-5c-.825 0-1.5-.675-1.5-1.5v0c0-.825.675-1.5 1.5-1.5h5C44.325 21 45 21.675 45 22.5zM39.094 8.906L39.094 8.906c.583.583.583 1.538 0 2.121l-3.536 3.536c-.583.583-1.538.583-2.121 0v0c-.583-.583-.583-1.538 0-2.121l3.536-3.536C37.556 8.322 38.511 8.322 39.094 8.906zM15.562 14.562L15.562 14.562c-.583.583-1.538.583-2.121 0l-3.536-3.536c-.583-.583-.583-1.538 0-2.121l0 0c.583-.583 1.538-.583 2.121 0l3.536 3.536C16.146 13.025 16.146 13.979 15.562 14.562zM24.5 11L24.5 11c-.825 0-1.5-.675-1.5-1.5v-5C23 3.675 23.675 3 24.5 3h0C25.325 3 26 3.675 26 4.5v5C26 10.325 25.325 11 24.5 11z"/></svg>