<svg xmlns="http://www.w3.org/2000/svg" width="10" height="10" viewBox="0 0 946 946" style="enable-background:new 0 0 946 946" xml:space="preserve" class="inline-block w-5 h-5"><path d="M431.7 589.899h82.6v77.9h-82.6zM304.2 589.899h82.6v77.9h-82.6zM52.7 589.899h79v77.9h-79zM176.6 589.899h82.6v77.9h-82.6zM814.4 589.899h79v77.9h-79zM559.3 589.899h82.601v77.9H559.3zM686.8 589.899h82.601v77.9H686.8zM896 278.2H50c-27.6 0-50 22.4-50 50v34.3c29.1 0 52.7 23.6 52.7 52.7S29.1 467.9 0 467.9v84.3h946v-84.3c-29.1 0-52.7-23.6-52.7-52.699 0-29.101 23.601-52.7 52.7-52.7v-34.3c0-27.701-22.4-50.001-50-50.001zM253.1 434.1c0 27.601-22.4 50-50 50h-38c-27.6 0-50-22.4-50-50v-38c0-27.6 22.4-50 50-50h38c27.6 0 50 22.4 50 50v38zm288.9 0c0 27.601-22.4 50-50 50h-38c-27.6 0-50-22.4-50-50v-38c0-27.6 22.4-50 50-50h38c27.6 0 50 22.4 50 50v38zm287.9 0c0 27.601-22.4 50-50 50h-38c-27.601 0-50-22.4-50-50v-38c0-27.6 22.399-50 50-50h38c27.6 0 50 22.4 50 50v38z"/></svg>